<mxfile host="app.diagrams.net" modified="2021-09-09T10:45:55.118Z" agent="5.0 (Windows NT 10.0; Win64; x64) AppleWebKit/537.36 (KHTML, like Gecko) Chrome/92.0.4515.159 Safari/537.36 Edg/92.0.902.78" etag="uziaRamMm47XcUVgQgib" version="15.1.2" type="github">
  <diagram id="C5RBs43oDa-KdzZeNtuy" name="Page-1">
    <mxGraphModel dx="1209" dy="642" grid="1" gridSize="10" guides="1" tooltips="1" connect="1" arrows="1" fold="1" page="1" pageScale="1" pageWidth="827" pageHeight="1169" math="0" shadow="0">
      <root>
        <mxCell id="WIyWlLk6GJQsqaUBKTNV-0" />
        <mxCell id="WIyWlLk6GJQsqaUBKTNV-1" parent="WIyWlLk6GJQsqaUBKTNV-0" />
        <mxCell id="ZGsKefjF0ugYiVrYtN1P-0" value="" style="endArrow=classic;html=1;" edge="1" parent="WIyWlLk6GJQsqaUBKTNV-1">
          <mxGeometry width="50" height="50" relative="1" as="geometry">
            <mxPoint x="335" y="100" as="sourcePoint" />
            <mxPoint x="335" y="120" as="targetPoint" />
          </mxGeometry>
        </mxCell>
        <mxCell id="ZGsKefjF0ugYiVrYtN1P-1" value="" style="endArrow=classic;html=1;" edge="1" parent="WIyWlLk6GJQsqaUBKTNV-1">
          <mxGeometry width="50" height="50" relative="1" as="geometry">
            <mxPoint x="334" y="185" as="sourcePoint" />
            <mxPoint x="334" y="205" as="targetPoint" />
          </mxGeometry>
        </mxCell>
        <mxCell id="ZGsKefjF0ugYiVrYtN1P-2" value="&lt;span&gt;In Settings Keep Location services ON&lt;/span&gt;" style="shape=parallelogram;perimeter=parallelogramPerimeter;whiteSpace=wrap;html=1;fixedSize=1;" vertex="1" parent="WIyWlLk6GJQsqaUBKTNV-1">
          <mxGeometry x="205" y="126" width="240" height="60" as="geometry" />
        </mxCell>
        <mxCell id="ZGsKefjF0ugYiVrYtN1P-3" value="Open Uber App in your mobile. Allow to access your location&amp;nbsp;" style="rounded=0;whiteSpace=wrap;html=1;" vertex="1" parent="WIyWlLk6GJQsqaUBKTNV-1">
          <mxGeometry x="199" y="204" width="260" height="60" as="geometry" />
        </mxCell>
        <mxCell id="ZGsKefjF0ugYiVrYtN1P-4" value="&lt;span&gt;Enter Pickup Location or select location from map and confirm pickup location&lt;/span&gt;" style="shape=parallelogram;perimeter=parallelogramPerimeter;whiteSpace=wrap;html=1;fixedSize=1;" vertex="1" parent="WIyWlLk6GJQsqaUBKTNV-1">
          <mxGeometry x="185" y="283" width="280" height="60" as="geometry" />
        </mxCell>
        <mxCell id="ZGsKefjF0ugYiVrYtN1P-5" value="" style="endArrow=classic;html=1;" edge="1" parent="WIyWlLk6GJQsqaUBKTNV-1">
          <mxGeometry width="50" height="50" relative="1" as="geometry">
            <mxPoint x="333" y="262" as="sourcePoint" />
            <mxPoint x="333" y="282" as="targetPoint" />
          </mxGeometry>
        </mxCell>
        <mxCell id="ZGsKefjF0ugYiVrYtN1P-6" value="&lt;span&gt;Enter Destination or Where to&amp;nbsp; Location or select location from map and confirm pickup location&lt;/span&gt;" style="shape=parallelogram;perimeter=parallelogramPerimeter;whiteSpace=wrap;html=1;fixedSize=1;" vertex="1" parent="WIyWlLk6GJQsqaUBKTNV-1">
          <mxGeometry x="173" y="360" width="280" height="60" as="geometry" />
        </mxCell>
        <mxCell id="ZGsKefjF0ugYiVrYtN1P-7" value="" style="endArrow=classic;html=1;" edge="1" parent="WIyWlLk6GJQsqaUBKTNV-1">
          <mxGeometry width="50" height="50" relative="1" as="geometry">
            <mxPoint x="332" y="336" as="sourcePoint" />
            <mxPoint x="332" y="356" as="targetPoint" />
          </mxGeometry>
        </mxCell>
        <mxCell id="ZGsKefjF0ugYiVrYtN1P-8" value="Confirm Pickup and where to location ?" style="rhombus;whiteSpace=wrap;html=1;" vertex="1" parent="WIyWlLk6GJQsqaUBKTNV-1">
          <mxGeometry x="211" y="459" width="220" height="141" as="geometry" />
        </mxCell>
        <mxCell id="ZGsKefjF0ugYiVrYtN1P-9" value="" style="endArrow=classic;html=1;entryX=0.5;entryY=0;entryDx=0;entryDy=0;exitX=0.531;exitY=0.987;exitDx=0;exitDy=0;exitPerimeter=0;" edge="1" parent="WIyWlLk6GJQsqaUBKTNV-1" source="ZGsKefjF0ugYiVrYtN1P-6" target="ZGsKefjF0ugYiVrYtN1P-8">
          <mxGeometry width="50" height="50" relative="1" as="geometry">
            <mxPoint x="335" y="430" as="sourcePoint" />
            <mxPoint x="317" y="441" as="targetPoint" />
          </mxGeometry>
        </mxCell>
        <mxCell id="ZGsKefjF0ugYiVrYtN1P-10" value="" style="endArrow=classic;html=1;exitX=0.531;exitY=0.987;exitDx=0;exitDy=0;exitPerimeter=0;" edge="1" parent="WIyWlLk6GJQsqaUBKTNV-1">
          <mxGeometry width="50" height="50" relative="1" as="geometry">
            <mxPoint x="318.68000000000006" y="599.22" as="sourcePoint" />
            <mxPoint x="317" y="640" as="targetPoint" />
          </mxGeometry>
        </mxCell>
        <mxCell id="ZGsKefjF0ugYiVrYtN1P-11" value="Y" style="text;html=1;align=center;verticalAlign=middle;resizable=0;points=[];autosize=1;strokeColor=none;fillColor=none;" vertex="1" parent="WIyWlLk6GJQsqaUBKTNV-1">
          <mxGeometry x="335" y="640" width="20" height="20" as="geometry" />
        </mxCell>
        <mxCell id="ZGsKefjF0ugYiVrYtN1P-12" value="" style="endArrow=classic;html=1;" edge="1" parent="WIyWlLk6GJQsqaUBKTNV-1">
          <mxGeometry width="50" height="50" relative="1" as="geometry">
            <mxPoint x="123" y="550" as="sourcePoint" />
            <mxPoint x="123" y="320" as="targetPoint" />
          </mxGeometry>
        </mxCell>
        <mxCell id="ZGsKefjF0ugYiVrYtN1P-13" value="" style="endArrow=classic;html=1;entryX=0.018;entryY=0.626;entryDx=0;entryDy=0;entryPerimeter=0;" edge="1" parent="WIyWlLk6GJQsqaUBKTNV-1" target="ZGsKefjF0ugYiVrYtN1P-4">
          <mxGeometry width="50" height="50" relative="1" as="geometry">
            <mxPoint x="125" y="320" as="sourcePoint" />
            <mxPoint x="175" y="270" as="targetPoint" />
          </mxGeometry>
        </mxCell>
        <mxCell id="ZGsKefjF0ugYiVrYtN1P-14" value="N" style="text;html=1;align=center;verticalAlign=middle;resizable=0;points=[];autosize=1;strokeColor=none;fillColor=none;" vertex="1" parent="WIyWlLk6GJQsqaUBKTNV-1">
          <mxGeometry x="175" y="560" width="20" height="20" as="geometry" />
        </mxCell>
        <mxCell id="ZGsKefjF0ugYiVrYtN1P-15" value="A" style="ellipse;whiteSpace=wrap;html=1;aspect=fixed;" vertex="1" parent="WIyWlLk6GJQsqaUBKTNV-1">
          <mxGeometry x="284" y="634" width="66" height="66" as="geometry" />
        </mxCell>
        <mxCell id="ZGsKefjF0ugYiVrYtN1P-16" value="A" style="ellipse;whiteSpace=wrap;html=1;aspect=fixed;" vertex="1" parent="WIyWlLk6GJQsqaUBKTNV-1">
          <mxGeometry x="735" y="60" width="80" height="80" as="geometry" />
        </mxCell>
        <mxCell id="ZGsKefjF0ugYiVrYtN1P-17" value="" style="endArrow=classic;html=1;exitX=0.531;exitY=0.987;exitDx=0;exitDy=0;exitPerimeter=0;" edge="1" parent="WIyWlLk6GJQsqaUBKTNV-1">
          <mxGeometry width="50" height="50" relative="1" as="geometry">
            <mxPoint x="774.6800000000003" y="141.22000000000003" as="sourcePoint" />
            <mxPoint x="773" y="170" as="targetPoint" />
          </mxGeometry>
        </mxCell>
        <mxCell id="ZGsKefjF0ugYiVrYtN1P-18" value="Choose from available Cars and time as per your requirement&amp;nbsp;&amp;nbsp;" style="rounded=0;whiteSpace=wrap;html=1;" vertex="1" parent="WIyWlLk6GJQsqaUBKTNV-1">
          <mxGeometry x="645" y="171" width="260" height="60" as="geometry" />
        </mxCell>
        <mxCell id="ZGsKefjF0ugYiVrYtN1P-19" value="Confirm ?" style="rhombus;whiteSpace=wrap;html=1;" vertex="1" parent="WIyWlLk6GJQsqaUBKTNV-1">
          <mxGeometry x="712" y="259" width="135" height="120" as="geometry" />
        </mxCell>
        <mxCell id="ZGsKefjF0ugYiVrYtN1P-20" value="" style="endArrow=classic;html=1;exitX=0.531;exitY=0.987;exitDx=0;exitDy=0;exitPerimeter=0;" edge="1" parent="WIyWlLk6GJQsqaUBKTNV-1">
          <mxGeometry width="50" height="50" relative="1" as="geometry">
            <mxPoint x="778.6800000000003" y="229.22000000000003" as="sourcePoint" />
            <mxPoint x="777" y="258" as="targetPoint" />
          </mxGeometry>
        </mxCell>
        <mxCell id="ZGsKefjF0ugYiVrYtN1P-21" value="" style="endArrow=classic;html=1;exitX=0.531;exitY=0.987;exitDx=0;exitDy=0;exitPerimeter=0;" edge="1" parent="WIyWlLk6GJQsqaUBKTNV-1">
          <mxGeometry width="50" height="50" relative="1" as="geometry">
            <mxPoint x="781.6800000000003" y="379.22" as="sourcePoint" />
            <mxPoint x="780" y="408" as="targetPoint" />
          </mxGeometry>
        </mxCell>
        <mxCell id="ZGsKefjF0ugYiVrYtN1P-22" value="Y" style="text;html=1;align=center;verticalAlign=middle;resizable=0;points=[];autosize=1;strokeColor=none;fillColor=none;" vertex="1" parent="WIyWlLk6GJQsqaUBKTNV-1">
          <mxGeometry x="801" y="373" width="20" height="20" as="geometry" />
        </mxCell>
        <mxCell id="ZGsKefjF0ugYiVrYtN1P-23" value="" style="endArrow=classic;html=1;exitX=0.531;exitY=0.987;exitDx=0;exitDy=0;exitPerimeter=0;" edge="1" parent="WIyWlLk6GJQsqaUBKTNV-1">
          <mxGeometry width="50" height="50" relative="1" as="geometry">
            <mxPoint x="712" y="318.5" as="sourcePoint" />
            <mxPoint x="620.3199999999999" y="318.5" as="targetPoint" />
          </mxGeometry>
        </mxCell>
        <mxCell id="ZGsKefjF0ugYiVrYtN1P-24" value="" style="endArrow=classic;html=1;" edge="1" parent="WIyWlLk6GJQsqaUBKTNV-1">
          <mxGeometry width="50" height="50" relative="1" as="geometry">
            <mxPoint x="625" y="321" as="sourcePoint" />
            <mxPoint x="625" y="210" as="targetPoint" />
          </mxGeometry>
        </mxCell>
        <mxCell id="ZGsKefjF0ugYiVrYtN1P-25" value="" style="endArrow=classic;html=1;entryX=0.018;entryY=0.626;entryDx=0;entryDy=0;entryPerimeter=0;" edge="1" parent="WIyWlLk6GJQsqaUBKTNV-1">
          <mxGeometry width="50" height="50" relative="1" as="geometry">
            <mxPoint x="625" y="205" as="sourcePoint" />
            <mxPoint x="645" y="204.55999999999995" as="targetPoint" />
          </mxGeometry>
        </mxCell>
        <mxCell id="ZGsKefjF0ugYiVrYtN1P-26" value="Select Payment method&amp;nbsp;" style="rounded=0;whiteSpace=wrap;html=1;" vertex="1" parent="WIyWlLk6GJQsqaUBKTNV-1">
          <mxGeometry x="665" y="410" width="230" height="40" as="geometry" />
        </mxCell>
        <mxCell id="ZGsKefjF0ugYiVrYtN1P-27" value="&lt;span&gt;Enter given payment details&lt;/span&gt;" style="shape=parallelogram;perimeter=parallelogramPerimeter;whiteSpace=wrap;html=1;fixedSize=1;" vertex="1" parent="WIyWlLk6GJQsqaUBKTNV-1">
          <mxGeometry x="625" y="480" width="280" height="60" as="geometry" />
        </mxCell>
        <mxCell id="ZGsKefjF0ugYiVrYtN1P-28" value="" style="endArrow=classic;html=1;exitX=0.531;exitY=0.987;exitDx=0;exitDy=0;exitPerimeter=0;" edge="1" parent="WIyWlLk6GJQsqaUBKTNV-1">
          <mxGeometry width="50" height="50" relative="1" as="geometry">
            <mxPoint x="774.6800000000003" y="448.22" as="sourcePoint" />
            <mxPoint x="773" y="477" as="targetPoint" />
          </mxGeometry>
        </mxCell>
        <mxCell id="ZGsKefjF0ugYiVrYtN1P-29" value="" style="endArrow=classic;html=1;exitX=0.531;exitY=0.987;exitDx=0;exitDy=0;exitPerimeter=0;" edge="1" parent="WIyWlLk6GJQsqaUBKTNV-1">
          <mxGeometry width="50" height="50" relative="1" as="geometry">
            <mxPoint x="771.6800000000003" y="543.22" as="sourcePoint" />
            <mxPoint x="770" y="572" as="targetPoint" />
          </mxGeometry>
        </mxCell>
        <mxCell id="ZGsKefjF0ugYiVrYtN1P-30" value="Confirm to wear mask" style="rounded=0;whiteSpace=wrap;html=1;" vertex="1" parent="WIyWlLk6GJQsqaUBKTNV-1">
          <mxGeometry x="654" y="571" width="230" height="40" as="geometry" />
        </mxCell>
        <mxCell id="ZGsKefjF0ugYiVrYtN1P-31" value="" style="endArrow=classic;html=1;exitX=0.531;exitY=0.987;exitDx=0;exitDy=0;exitPerimeter=0;" edge="1" parent="WIyWlLk6GJQsqaUBKTNV-1" target="ZGsKefjF0ugYiVrYtN1P-32">
          <mxGeometry width="50" height="50" relative="1" as="geometry">
            <mxPoint x="772.6800000000003" y="614.22" as="sourcePoint" />
            <mxPoint x="771" y="643" as="targetPoint" />
          </mxGeometry>
        </mxCell>
        <mxCell id="ZGsKefjF0ugYiVrYtN1P-32" value="End" style="ellipse;whiteSpace=wrap;html=1;" vertex="1" parent="WIyWlLk6GJQsqaUBKTNV-1">
          <mxGeometry x="711" y="633" width="120" height="80" as="geometry" />
        </mxCell>
      </root>
    </mxGraphModel>
  </diagram>
</mxfile>
